<?xml version="1.0" encoding="utf-8"?>
<!-- Generator: Adobe Illustrator 16.0.0, SVG Export Plug-In . SVG Version: 6.00 Build 0)  -->
<!DOCTYPE svg PUBLIC "-//W3C//DTD SVG 1.1//EN" "http://www.w3.org/Graphics/SVG/1.1/DTD/svg11.dtd">
<svg version="1.1" id="Layer_1" xmlns="http://www.w3.org/2000/svg" xmlns:xlink="http://www.w3.org/1999/xlink" x="0px" y="0px"
	 width="600px" height="100px" viewBox="0 0 600 100" enable-background="new 0 0 600 100" xml:space="preserve">
<g id="Layer_1_1_">
	<g>
		<path fill="#F18F01" d="M263.796,46.623c0.156,0.079,0.311,0.196,0.484,0.241c1.292,0.328,2.585,0.65,3.882,0.958
			c1.271,0.3,2.521,0.64,3.62,1.39c0.784,0.535,1.493,1.151,2.139,1.845c0.956,1.023,1.312,2.301,1.499,3.637
			c0.244,1.744,0.271,3.49,0.07,5.248c-0.099,0.865-0.102,1.763,0.001,2.627c0.11,0.925,0.028,1.83-0.134,2.711
			c-0.257,1.402-0.496,2.813-0.942,4.178c-0.463,1.417-1.163,2.674-2.221,3.734c-0.678,0.682-1.452,1.199-2.323,1.584
			c-0.482,0.215-0.988,0.342-1.514,0.328c-1.988-0.047-3.872-0.479-5.515-1.653c-2.333-1.668-3.689-3.913-3.787-6.813
			c-0.055-1.621-0.026-3.244,0.169-4.867c0.229-1.906,0.65-3.777,0.931-5.672c0.185-1.254,0.245-2.521-0.113-3.771
			c-0.202-0.704-0.599-1.207-1.281-1.493c-2.239-0.941-4.533-1.618-6.997-1.498c-0.99,0.049-1.918,0.299-2.786,0.795
			c-0.622,0.355-0.956,0.849-0.957,1.574c-0.002,1.106-0.027,2.211,0.297,3.29c0.116,0.389,0.295,0.722,0.611,0.973
			c0.534,0.424,1.071,0.846,1.614,1.258c0.285,0.217,0.602,0.393,0.875,0.621c1.039,0.877,1.177,2.119,0.383,3.213
			c-0.354,0.487-0.764,0.877-1.379,1.018c-0.216,0.05-0.421,0.171-0.618,0.283c-1.417,0.81-2.949,1.149-4.569,1.225
			c-1.285,0.059-2.536-0.083-3.754-0.467c-0.616-0.194-1.217-0.46-1.793-0.756c-0.881-0.452-1.387-1.271-1.804-2.118
			c-0.128-0.261-0.074-0.642-0.016-0.951c0.065-0.347,0.215-0.681,0.356-1.008c0.815-1.888,1.422-3.837,1.797-5.857
			c0.059-0.317,0.102-0.643,0.107-0.965c0.023-1.432,0.077-2.864,0.028-4.293c-0.041-1.172-0.372-2.303-0.73-3.42
			c-0.717-2.234-1.594-4.403-2.682-6.481c-0.316-0.603-0.696-1.176-1.084-1.736c-0.745-1.075-1.365-2.212-1.844-3.429
			c-0.405-1.028-0.844-2.043-1.24-3.075c-0.538-1.401-0.89-2.851-1.053-4.345c-0.141-1.295,0.09-2.54,0.622-3.707
			c0.791-1.735,2.229-2.672,4.07-2.988c0.57-0.098,1.17-0.094,1.748-0.043c0.409,0.036,0.839,0.165,1.197,0.365
			c0.765,0.428,1.507,0.902,2.154,1.507c0.332,0.311,0.688,0.597,1.033,0.895c0.937,0.807,1.593,1.787,1.899,2.997
			c0.55,2.173,1.104,4.346,1.673,6.514c0.337,1.288,0.731,2.562,1.054,3.854c0.26,1.04,0.408,2.107,0.68,3.143
			c0.43,1.633,0.912,3.252,1.395,4.87c0.139,0.465,0.367,0.903,0.537,1.36c0.136,0.367,0.405,0.486,0.766,0.457
			c0.193-0.015,0.398-0.014,0.575-0.08c0.912-0.342,1.826-0.681,2.721-1.064c0.617-0.264,1.06-0.732,1.352-1.348
			c0.362-0.763,0.761-1.505,0.986-2.33c0.245-0.896,0.155-1.74-0.251-2.559c-0.276-0.556-0.611-1.069-1.047-1.52
			c-0.633-0.654-1.25-1.325-1.854-2.007c-0.697-0.786-1.188-1.7-1.62-2.654c-0.387-0.855-0.34-1.712-0.086-2.574
			c0.142-0.481,0.463-0.849,0.881-1.133c0.466-0.317,0.98-0.52,1.525-0.626c1.249-0.245,2.512-0.369,3.784-0.292
			c0.449,0.028,0.898,0.137,1.336,0.252c0.911,0.24,1.809,0.531,2.722,0.763c1.662,0.421,3.154,1.199,4.59,2.106
			c0.109,0.069,0.224,0.139,0.315,0.229c1.296,1.269,2.442,2.661,2.775,4.493c0.315,1.734,0.393,3.495-0.321,5.18
			c-0.506,1.197-1.001,2.402-1.575,3.567c-0.666,1.354-1.597,2.524-2.716,3.544C264.21,46.061,263.899,46.217,263.796,46.623z"/>
		<path fill="#F18F01" d="M130.389,43.059c-0.523,0.222-0.745,0.554-1.01,0.831c-1.153,1.203-2.09,2.559-2.956,3.984
			c-0.978,1.61-2.078,3.147-3.12,4.72c-0.485,0.732-0.962,1.469-1.436,2.208c-0.599,0.935-1.246,1.829-2.042,2.605
			c-0.619,0.604-1.333,1.043-2.203,1.169c-0.32,0.047-0.653,0.091-0.969,0.05c-1.135-0.146-2.24-0.418-3.251-0.976
			c-1.125-0.616-1.816-1.562-1.996-2.838c-0.053-0.379-0.074-0.804,0.041-1.158c0.244-0.758,0.198-1.545,0.323-2.313
			c0.065-0.402-0.01-0.843-0.097-1.25c-0.402-1.881-0.67-3.77-0.634-5.703c0.044-2.342-0.012-4.686,0.058-7.026
			c0.036-1.2,0.164-2.399,0.112-3.6c-0.068-1.588-0.144-3.176-0.31-4.76c-0.199-1.906-0.39-3.815-0.324-5.738
			c0.014-0.413,0.094-0.848-0.158-1.245c-0.413-0.141-0.836-0.044-1.254-0.039c-1.284,0.018-2.526-0.142-3.682-0.762
			c-0.596-0.32-1.007-0.819-1.397-1.335c-0.232-0.308-0.218-0.684,0.017-1.001c0.152-0.206,0.336-0.404,0.547-0.546
			c0.349-0.235,0.713-0.462,1.101-0.622c1.292-0.532,2.591-1.044,3.897-1.541c1.035-0.393,2.103-0.667,3.203-0.828
			c1.221-0.179,2.434-0.408,3.652-0.603c0.287-0.046,0.584-0.083,0.871-0.055c0.742,0.07,1.312,0.668,1.356,1.419
			c0.023,0.388,0.042,0.79-0.029,1.168c-0.303,1.614-0.282,3.232-0.139,4.855c0.128,1.458,0.228,2.916,0.163,4.38
			c-0.061,1.362-0.092,2.728-0.217,4.084c-0.082,0.881-0.093,1.742,0.032,2.618c0.119,0.834,0.156,1.68,0.25,2.519
			c0.193,1.716,0.195,3.438,0.176,5.162c-0.019,1.653-0.004,3.308-0.004,4.966c0.138,0.079,0.226,0.002,0.296-0.119
			c0.115-0.196,0.239-0.388,0.341-0.591c0.823-1.641,1.903-3.095,3.143-4.445c1.123-1.221,2.198-2.484,3.294-3.728
			c0.87-0.986,1.915-1.75,3.02-2.449c1.945-1.23,4.097-1.653,6.343-1.532c1.301,0.071,2.551,0.508,3.67,1.207
			c0.316,0.198,0.567,0.532,0.783,0.848c0.199,0.291,0.335,0.632,0.455,0.967c0.514,1.438,0.969,2.897,1.267,4.396
			c0.138,0.698,0.15,1.42,0.241,2.129c0.086,0.675,0.171,1.354,0.312,2.02c0.197,0.934,0.727,1.666,1.53,2.176
			c0.658,0.418,1.341,0.795,2.013,1.191c0.476,0.281,0.952,0.562,1.425,0.847c0.43,0.26,0.612,0.647,0.597,1.146
			c-0.017,0.592-0.122,1.159-0.353,1.706c-0.801,1.899-1.938,3.558-3.688,4.681c-2.44,1.564-5.106,2.438-8.043,2.158
			c-1.225-0.115-2.296-0.674-3.186-1.54c-0.209-0.204-0.38-0.448-0.595-0.646c-1.03-0.947-1.401-2.166-1.43-3.512
			c-0.013-0.613,0.069-1.229,0.09-1.846c0.039-1.138,0.088-2.274,0.09-3.412c0.001-1.268-0.042-2.536-0.074-3.803
			C130.492,43.531,130.438,43.349,130.389,43.059z"/>
		<path fill="#F18F01" d="M371.686,36.105c0.092,0.276,0.144,0.462,0.213,0.641c0.779,1.991,1.134,4.061,1.117,6.194
			c-0.008,0.909-0.021,1.814-0.095,2.726c-0.147,1.843,0.162,3.627,1.028,5.291c0.667,1.279,1.76,2.057,3.041,2.62
			c0.432,0.188,0.826,0.132,1.186-0.162c0.275-0.228,0.545-0.462,0.811-0.702c0.314-0.281,0.613-0.582,0.934-0.859
			c0.605-0.524,1.295-0.849,2.112-0.901c0.646-0.041,1.289-0.194,1.935-0.2c1.485-0.014,2.799,0.498,3.938,1.452
			c0.392,0.328,0.59,0.744,0.592,1.276c0.003,0.598-0.102,1.16-0.324,1.711c-0.509,1.257-1.283,2.338-2.24,3.281
			c-0.34,0.334-0.771,0.605-1.205,0.813c-2.976,1.413-6.059,2.525-9.285,3.212c-1.25,0.267-2.512,0.373-3.776,0.104
			c-0.411-0.088-0.83-0.178-1.218-0.334c-1.452-0.588-2.813-1.313-4.006-2.373c-0.754-0.668-1.518-1.317-2.199-2.063
			c-0.836-0.913-1.393-1.979-1.596-3.186c-0.168-0.992-0.135-2.016,0.029-3.015c0.395-2.403,0.775-4.809,1.441-7.16
			c0.141-0.497,0.199-1.023,0.238-1.541c0.064-0.875,0.139-1.754,0.109-2.628c-0.027-0.866-0.027-1.748-0.279-2.653
			c-0.285-0.008-0.539-0.048-0.785-0.015c-1.348,0.178-2.654-0.038-3.954-0.369c-1.007-0.257-2.013-0.533-3.032-0.728
			c-1.053-0.201-2.117-0.341-3.197-0.327c-0.979,0.013-1.945-0.112-2.898-0.341c-0.969-0.232-1.592-0.822-1.887-1.777
			c-0.093-0.303-0.07-0.566,0.076-0.841c0.361-0.672,0.813-1.267,1.491-1.637c0.712-0.389,1.446-0.738,2.175-1.096
			c0.438-0.214,0.891-0.399,1.324-0.621c1.658-0.845,3.436-1.166,5.275-1.223c0.635-0.02,1.219,0.173,1.785,0.426
			c0.147,0.066,0.282,0.161,0.426,0.24c0.223,0.125,0.451,0.314,0.705,0.09c0.196-0.175,0.11-0.422,0.088-0.644
			c-0.008-0.063-0.034-0.125-0.057-0.186c-0.535-1.434-1.07-2.865-2.166-3.999c-0.359-0.374-0.688-0.78-1.027-1.176
			c-0.51-0.599-0.713-1.285-0.646-2.078c0.041-0.466,0.234-0.807,0.599-1.059c0.701-0.484,1.449-0.849,2.311-0.982
			c1.318-0.205,2.639-0.382,3.973-0.435c0.455-0.018,0.908-0.058,1.363-0.088c0.786-0.053,1.549,0.026,2.307,0.283
			c0.543,0.185,0.894,0.515,1.073,1.037c0.095,0.275,0.163,0.562,0.214,0.848c0.176,0.991,0.309,1.991,0.512,2.976
			c0.267,1.288,0.297,2.577,0.197,3.882c-0.039,0.51-0.176,1.025-0.044,1.587c0.396,0.162,0.815,0.19,1.226,0.242
			c0.453,0.057,0.906,0.129,1.359,0.125c0.45-0.004,0.913-0.046,1.346-0.16c1.228-0.324,2.449-0.655,3.711-0.815
			c0.289-0.037,0.578-0.099,0.869-0.105c1.27-0.025,2.537-0.047,3.807-0.046c1.222,0,2.378,0.354,3.509,0.764
			c1.442,0.523,2.155,2.061,1.597,3.491c-0.517,1.32-1.359,2.352-2.774,2.82c-1.063,0.352-2.127,0.579-3.255,0.4
			c-2.326-0.371-4.666-0.323-7.008-0.223c-0.617,0.026-1.236,0.012-1.855,0.012C372.523,35.9,372.141,35.928,371.686,36.105z"/>
		<path fill="#F18F01" d="M445.427,32.924c-0.113-0.371-0.163-0.623-0.27-0.848c-0.192-0.412-0.404-0.817-0.637-1.208
			c-0.986-1.676-1.584-3.475-1.811-5.411c-0.195-1.681-0.636-3.313-1.124-4.933c-0.271-0.901-0.532-1.809-0.727-2.729
			c-0.2-0.952-0.315-1.921-0.466-2.883c-0.068-0.435,0.135-0.753,0.447-1.021c0.382-0.326,0.852-0.48,1.321-0.602
			c1.227-0.318,2.451-0.651,3.693-0.897c1.948-0.385,3.924-0.564,5.913-0.568c0.927-0.002,1.81,0.177,2.673,0.485
			c0.183,0.065,0.362,0.146,0.53,0.243c0.704,0.408,0.865,0.901,0.488,1.64c-0.389,0.764-0.909,1.431-1.666,1.869
			c-0.646,0.374-1.309,0.723-1.965,1.08c-0.457,0.249-0.922,0.484-1.373,0.741c-0.388,0.22-0.591,0.549-0.682,1.006
			c-0.237,1.204-0.149,2.393,0.054,3.583c0.296,1.729,0.644,3.449,0.902,5.182c0.228,1.518,0.603,2.993,1.089,4.442
			c0.683,2.033,1.416,4.049,2.071,6.089c0.35,1.08,0.587,2.196,0.868,3.297c0.412,1.604,0.831,3.206,1.227,4.814
			c0.218,0.883,0.457,1.77,0.563,2.669c0.123,1.029,0.182,2.077,0.138,3.112c-0.039,0.898-0.613,1.572-1.375,2.009
			c-1.016,0.58-2.066,1.097-3.113,1.618c-1.088,0.542-2.279,0.758-3.452,1.016c-1.591,0.35-3.208,0.512-4.832,0.614
			c-0.908,0.06-1.815,0.129-2.725,0.179c-1.419,0.078-2.784-0.191-4.109-0.679c-1.254-0.462-2.459-1.032-3.61-1.707
			c-0.901-0.528-1.725-1.166-2.448-1.923c-0.495-0.518-0.989-1.035-1.469-1.567c-0.591-0.657-1.053-1.396-1.437-2.195
			c-0.865-1.8-1.514-3.671-1.769-5.652c-0.225-1.754-0.153-3.509,0.418-5.204c0.371-1.097,0.996-2.044,1.869-2.814
			c1.828-1.614,3.894-2.83,6.215-3.571c0.801-0.255,1.643-0.403,2.476-0.521c1.188-0.168,2.378-0.296,3.593-0.104
			c1.167,0.185,2.283,0.488,3.354,0.979C444.593,32.698,444.896,32.898,445.427,32.924z M435.219,43.119
			c0.052,0.506,0.105,0.925,0.138,1.345c0.17,2.216,1.213,3.903,3.153,4.959c1.491,0.811,3.107,1.316,4.789,1.603
			c0.408,0.068,0.773,0.021,1.127-0.18c1.082-0.61,2.084-1.325,2.929-2.247c0.088-0.096,0.171-0.197,0.245-0.304
			c0.699-1,0.65-2.441-0.381-3.231c-0.624-0.479-1.284-0.879-1.984-1.228c-2.126-1.059-4.411-1.754-6.51-2.878
			c-0.342-0.184-0.711-0.322-1.059-0.497c-0.223-0.111-0.438-0.125-0.655-0.019c-0.349,0.17-0.699,0.337-1.031,0.537
			c-0.322,0.193-0.506,0.514-0.577,0.873C435.313,42.297,435.271,42.75,435.219,43.119z"/>
		<path fill="#F18F01" d="M338.624,32.686c0.573-0.568,1.078-1.071,1.44-1.697c0.115-0.197,0.24-0.39,0.381-0.567
			c0.521-0.656,1.143-1.121,2.022-1.228c0.779-0.094,1.533-0.202,2.312,0.051c0.525,0.172,0.813,0.501,0.951,1.005
			c0.229,0.83,0.229,1.677,0.119,2.517c-0.144,1.094-0.336,2.178-0.326,3.292c0.011,1.08-0.99,2.245-2.057,2.384
			c-0.769,0.101-1.563,0.113-2.334,0.052c-1.884-0.149-3.771-0.176-5.656-0.161c-1.041,0.008-2.082,0.042-3.123,0.053
			c-1.178,0.012-2.336,0.174-3.484,0.402c-0.439,0.087-0.902,0.149-1.322,0.492c0.105,0.159,0.178,0.342,0.311,0.45
			c0.666,0.543,1.43,0.916,2.266,1.093c1.303,0.277,2.609,0.537,3.927,0.747c1.412,0.225,2.837,0.371,4.253,0.575
			c2.004,0.289,3.94,0.847,5.838,1.537c2.137,0.777,3.612,2.277,4.5,4.348c0.682,1.588,0.731,3.189,0.096,4.835
			c-0.672,1.735-1.647,3.249-3.002,4.508c-0.904,0.841-1.844,1.649-2.812,2.418c-1.987,1.574-4.282,2.44-6.78,2.776
			c-1.481,0.199-2.969,0.375-4.47,0.373c-1.274,0-2.528-0.162-3.768-0.461c-2.386-0.576-4.644-1.477-6.796-2.651
			c-0.514-0.281-1.026-0.563-1.549-0.829c-0.256-0.132-0.526-0.23-0.77-0.334c-0.566,0.284-0.936,0.686-1.248,1.148
			c-0.236,0.351-0.48,0.694-0.732,1.033c-0.629,0.842-1.625,0.938-2.463,0.66c-1.092-0.361-1.916-1.078-2.561-2.015
			c-0.32-0.468-0.462-1.007-0.508-1.562c-0.114-1.38,0.086-2.724,0.525-4.033c0.157-0.467,0.393-0.893,0.727-1.258
			c0.314-0.348,0.695-0.586,1.156-0.684c1.358-0.286,2.699-0.346,4.03,0.182c2.238,0.883,4.496,1.721,6.524,3.053
			c0.136,0.088,0.273,0.192,0.427,0.231c0.8,0.204,1.496,0.629,2.211,1.015c1.515,0.814,3.16,0.938,4.83,0.938
			c0.097,0.001,0.197-0.009,0.289-0.037c1.283-0.404,2.493-0.952,3.509-1.855c0.71-0.631,1.036-1.498,1.274-2.377
			c0.188-0.686,0.252-1.403,0.352-2.111c0.087-0.629-0.153-1.136-0.608-1.57c-0.922-0.883-1.941-1.635-3.049-2.262
			c-0.33-0.187-0.724-0.327-1.1-0.356c-2.5-0.199-4.969-0.619-7.439-1.021c-2.295-0.373-4.484-1.09-6.554-2.156
			c-1.497-0.771-2.557-1.999-3.343-3.455c-0.682-1.262-0.514-2.508,0.259-3.686c0.528-0.806,1.257-1.405,2.066-1.905
			c2.159-1.331,4.497-2.17,7.006-2.566c1.896-0.299,3.793-0.597,5.708-0.714c2.623-0.16,5.197,0.098,7.667,1.072
			C338.02,32.483,338.295,32.571,338.624,32.686z"/>
		<path fill="#F18F01" d="M494.916,57.341c-2.188-0.092-4.234-0.2-6.249-0.608c-2.122-0.431-4.169-1.092-5.913-2.41
			c-1.57-1.188-2.896-2.624-3.722-4.446c-0.995-2.194-1.075-4.46-0.451-6.767c0.144-0.533,0.292-1.066,0.461-1.592
			c0.19-0.591,0.448-1.157,0.842-1.642c0.493-0.605,1.01-1.19,1.522-1.779c0.127-0.146,0.293-0.261,0.416-0.411
			c1.646-2,3.817-3.21,6.193-4.091c2.792-1.036,5.678-1.642,8.655-1.81c1.25-0.07,2.459,0.024,3.656,0.417
			c2.174,0.715,4.248,1.63,6.16,2.896c1.153,0.765,2.118,1.724,2.897,2.864c0.589,0.859,1.152,1.734,1.726,2.604
			c1.049,1.594,1.11,3.284,0.49,5.042c-0.351,0.992-0.914,1.868-1.484,2.738c-0.536,0.815-1.086,1.621-1.629,2.434
			c-1.18,1.761-2.637,3.209-4.567,4.146c-1.968,0.957-4.006,1.709-6.138,2.205C496.791,57.363,495.789,57.419,494.916,57.341z
			 M492.563,47.858c0.309-0.048,0.571-0.058,0.814-0.133c1.196-0.369,2.27-0.961,3.201-1.802c0.416-0.375,0.773-0.801,0.941-1.34
			c0.3-0.964,0.441-1.939,0.281-2.96c-0.176-1.112-0.814-1.823-1.806-2.233c-0.933-0.386-1.911-0.633-2.911-0.771
			c-0.819-0.113-1.602-0.03-2.348,0.408c-0.901,0.529-1.758,1.109-2.529,1.813c-0.652,0.596-1.177,1.301-1.621,2.061
			c-0.506,0.865-0.491,1.729,0.09,2.554c0.187,0.264,0.4,0.516,0.64,0.731c0.61,0.552,1.318,0.974,2.12,1.146
			C490.482,47.557,491.547,47.692,492.563,47.858z"/>
		<path fill="#F18F01" d="M95.636,29.251c0.487-0.652,0.729-1.294,0.938-1.941c0.35-1.087,1.055-1.757,2.159-2.04
			c0.792-0.203,1.588-0.344,2.41-0.308c0.573,0.025,0.573,0.021,1.324,0.389c0.2,0.313,0.255,0.712,0.273,1.089
			c0.067,1.362,0.156,2.725-0.083,4.086c-0.126,0.72-0.343,1.396-0.747,1.991c-0.4,0.589-0.827,1.174-1.324,1.681
			c-1.097,1.119-2.414,1.485-3.925,0.941c-0.428-0.154-0.854-0.318-1.267-0.506c-2.014-0.917-4.105-1.135-6.291-0.835
			c-2.896,0.397-5.632,1.287-8.287,2.475c-0.579,0.259-1.057,0.619-1.47,1.094c-0.728,0.838-1.376,1.731-1.945,2.683
			c-0.474,0.793-0.738,1.657-0.905,2.56c-0.214,1.164,0.075,2.207,0.801,3.11c0.383,0.477,0.837,0.914,1.318,1.294
			c1.229,0.971,2.579,1.754,3.987,2.439c0.864,0.421,1.803,0.545,2.73,0.699c0.638,0.105,1.293,0.14,1.942,0.145
			c2.246,0.017,4.491,0.001,6.736,0.01c0.781,0.003,1.564,0.004,2.341,0.069c1.374,0.115,2.691,0.479,3.9,1.147
			c1.326,0.736,1.611,1.545,1.007,2.92c-0.851,1.939-2.27,3.305-4.28,4.021c-0.957,0.342-1.957,0.5-2.961,0.571
			c-2.499,0.178-5,0.321-7.507,0.253c-1.794-0.049-3.568-0.27-5.316-0.664c-1.856-0.42-3.563-1.23-5.202-2.175
			c-2.65-1.523-4.895-3.543-6.924-5.812c-1.021-1.141-1.731-2.458-1.888-3.994c-0.153-1.489-0.173-2.985,0.226-4.457
			c0.855-3.157,2.513-5.834,4.826-8.12c0.863-0.853,1.883-1.495,2.942-2.076c1.453-0.798,2.904-1.595,4.456-2.202
			c1.868-0.731,3.814-1.079,5.792-1.269c2.083-0.201,4.155-0.031,6.223,0.272C92.959,28.99,94.285,29.101,95.636,29.251z"/>
		<path fill="#F18F01" d="M184.152,47.025c0.262,0.26,0.357,0.385,0.48,0.471c0.485,0.338,1.021,0.57,1.594,0.708
			c1.358,0.33,2.713,0.672,4.078,0.975c1.598,0.355,3.218,0.436,4.848,0.282c1.714-0.161,3.429-0.322,5.143-0.487
			c1.25-0.121,2.465,0.029,3.646,0.453c0.183,0.066,0.362,0.146,0.537,0.232c0.659,0.322,0.938,0.86,0.905,1.585
			c-0.024,0.531-0.176,1.021-0.427,1.484c-0.517,0.955-1.183,1.789-2.036,2.465c-0.817,0.647-1.68,1.227-2.617,1.691
			c-0.582,0.289-1.155,0.598-1.741,0.879c-2.342,1.131-4.805,1.788-7.413,1.861c-1.595,0.045-3.187,0-4.774-0.16
			c-1.203-0.122-2.38-0.359-3.483-0.874c-0.765-0.356-1.524-0.729-2.264-1.135c-0.336-0.187-0.652-0.438-0.918-0.716
			c-1.078-1.129-2.142-2.273-3.044-3.553c-0.281-0.398-0.544-0.811-0.801-1.225c-0.404-0.65-0.615-1.345-0.572-2.128
			c0.042-0.746,0.03-1.496,0.007-2.244c-0.029-0.985,0.123-1.943,0.376-2.888c0.202-0.752,0.416-1.503,0.647-2.247
			c0.285-0.916,0.775-1.718,1.444-2.404c0.59-0.604,1.197-1.195,1.804-1.784c0.186-0.181,0.383-0.359,0.601-0.497
			c1.293-0.815,2.586-1.635,4.074-2.064c1.373-0.396,2.738-0.832,4.129-1.15c2.13-0.487,4.306-0.636,6.488-0.658
			c1.594-0.016,3.187,0.004,4.77,0.246c1.456,0.222,2.851,0.646,4.198,1.227c0.355,0.153,0.695,0.361,1.006,0.591
			c0.919,0.681,1.237,1.645,0.907,2.759c-0.119,0.402-0.274,0.804-0.479,1.168c-0.912,1.614-2.147,2.926-3.708,3.937
			c-1.83,1.185-3.851,1.874-5.958,2.337c-2.194,0.483-4.421,0.764-6.657,0.941c-1.327,0.104-2.665,0.124-3.993-0.079
			C184.76,47,184.565,47.025,184.152,47.025z M192.442,38.997c-0.144-0.093-0.219-0.162-0.307-0.194
			c-0.701-0.25-1.399-0.509-2.11-0.728c-0.2-0.062-0.457-0.057-0.656,0.01c-0.889,0.301-1.785,0.593-2.645,0.966
			c-1.245,0.541-2.253,1.397-3.023,2.521c-0.109,0.159-0.216,0.325-0.289,0.502c-0.082,0.201-0.019,0.398,0.172,0.503
			c0.165,0.09,0.355,0.167,0.54,0.184c0.647,0.06,1.297,0.08,1.934-0.086c0.846-0.22,1.687-0.458,2.532-0.681
			c1.222-0.323,2.222-1.041,3.188-1.809C192.135,39.902,192.424,39.552,192.442,38.997z"/>
		<path fill="#F18F01" d="M207.263,48.453c0.048-0.907,0.031-1.824,0.158-2.721c0.259-1.826,0.971-3.503,1.921-5.07
			c0.934-1.54,2.107-2.892,3.472-4.065c1.408-1.21,3.052-1.983,4.859-2.37c1.399-0.299,2.817-0.455,4.256-0.492
			c1.868-0.047,3.603,0.424,5.297,1.126c0.48,0.199,0.938,0.45,1.409,0.669c2.031,0.945,3.583,2.45,4.911,4.212
			c0.613,0.813,1.039,1.731,1.346,2.694c0.556,1.742,0.845,3.528,0.891,5.363c0.053,2.11-0.618,3.957-1.878,5.618
			c-0.931,1.228-2.011,2.282-3.326,3.114c-1.83,1.156-3.755,2.063-5.87,2.556c-0.822,0.192-1.644,0.399-2.445,0.662
			c-1.612,0.528-3.233,0.642-4.905,0.334c-1.541-0.284-3.039-0.664-4.454-1.366c-1.516-0.752-2.779-1.797-3.823-3.113
			c-0.22-0.277-0.413-0.588-0.569-0.905c-0.783-1.599-1.228-3.28-1.207-5.071c0.004-0.391,0-0.781,0-1.171
			C207.292,48.455,207.277,48.455,207.263,48.453z M219.978,44.803c-0.154,0.778-0.292,1.439-0.416,2.104
			c-0.173,0.929-0.248,1.842-0.012,2.793c0.31,1.253,0.93,2.261,1.903,3.093c0.708,0.605,1.519,0.74,2.369,0.546
			c0.95-0.217,1.859-0.579,2.71-1.069c0.579-0.334,1.01-0.806,1.347-1.377c0.316-0.538,0.301-1.03-0.093-1.531
			c-0.45-0.571-0.995-1.025-1.598-1.416C224.273,46.707,222.176,45.83,219.978,44.803z"/>
		<path fill="#F18F01" d="M413.488,50.066c0.277-0.994,0.265-1.968,0.172-2.938c-0.073-0.774-0.199-1.545-0.326-2.313
			c-0.23-1.41-0.471-2.818-0.725-4.225c-0.103-0.574-0.232-1.145-0.375-1.711c-0.293-1.152-0.277-2.32-0.205-3.492
			c0.041-0.64,0.306-1.192,0.721-1.673c0.327-0.38,0.719-0.666,1.227-0.742c0.867-0.129,1.734-0.269,2.605-0.357
			c1.063-0.107,2.063,0.209,3.04,0.576c0.692,0.26,1.202,0.772,1.628,1.354c0.268,0.365,0.486,0.77,0.692,1.174
			c0.888,1.751,1.509,3.598,1.847,5.528c0.219,1.249,0.293,2.518,0.23,3.79c-0.046,0.941-0.119,1.883-0.136,2.825
			c-0.029,1.741-0.543,3.322-1.481,4.777c-0.849,1.313-1.771,2.569-2.842,3.715c-0.904,0.967-1.974,1.67-3.205,2.162
			c-2.311,0.924-4.679,1.287-7.164,1.041c-1.234-0.123-2.443-0.305-3.64-0.639c-1.106-0.309-2.133-0.786-3.131-1.337
			c-0.657-0.363-1.229-0.84-1.754-1.386c-1.112-1.153-2.082-2.407-2.845-3.821c-0.741-1.374-1.51-2.733-2.241-4.11
			c-0.962-1.807-1.246-3.742-1.044-5.765c0.094-0.939,0.22-1.871,0.482-2.78c0.274-0.944,0.682-1.829,1.228-2.644
			c0.646-0.963,1.51-1.608,2.696-1.729c1.263-0.129,2.524-0.239,3.785-0.373c0.74-0.079,1.414,0.158,2.09,0.395
			c0.318,0.111,0.541,0.341,0.701,0.643c0.41,0.779,0.729,1.567,0.793,2.477c0.088,1.262,0.303,2.514,0.465,3.771
			c0.078,0.612,0.166,1.223,0.229,1.836c0.141,1.355,0.648,2.587,1.338,3.734c0.465,0.777,1.059,1.477,1.598,2.208
			c0.201,0.273,0.471,0.494,0.813,0.477c0.744-0.037,1.486-0.115,2.229-0.207C413.162,50.285,413.327,50.146,413.488,50.066z"/>
		<path fill="#F18F01" d="M161.68,49.067c0.043-0.079,0.111-0.155,0.13-0.243c0.248-1.144,0.455-2.291,0.594-3.456
			c0.256-2.142,0.15-4.288,0.172-6.432c0.008-0.79,0.114-1.549,0.413-2.286c0.407-1.005,1.08-1.774,2.008-2.315
			c0.276-0.161,0.588-0.298,0.901-0.353c0.832-0.147,1.67-0.312,2.511-0.341c0.987-0.035,1.939,0.244,2.786,0.756
			c0.754,0.457,1.231,1.164,1.431,2.021c0.35,1.506,0.378,3.038,0.166,4.559c-0.26,1.866-0.55,3.722-0.571,5.616
			c-0.022,2.058-0.384,4.073-0.998,6.039c-0.371,1.188-0.95,2.282-1.598,3.334c-0.657,1.067-1.637,1.735-2.813,2.147
			c-2.073,0.728-4.183,0.894-6.345,0.517c-1.96-0.343-3.851-0.896-5.676-1.698c-1.477-0.652-2.619-1.678-3.581-2.937
			c-0.4-0.522-0.667-1.125-0.839-1.751c-0.25-0.907-0.45-1.828-0.641-2.749c-0.376-1.813-0.736-3.629-1.093-5.446
			c-0.163-0.829-0.348-1.657-0.44-2.494c-0.163-1.48,0.081-2.944,0.586-4.317c0.437-1.188,1.275-2.102,2.595-2.449
			c0.851-0.224,1.703-0.404,2.583-0.477c0.603-0.05,1.163,0.061,1.721,0.246c0.521,0.174,0.795,0.544,0.829,1.087
			c0.032,0.519,0.039,1.04,0.081,1.558c0.217,2.64,0.848,5.192,1.694,7.691c0.487,1.438,1.306,2.688,2.464,3.695
			C161.13,48.92,161.13,48.92,161.68,49.067z"/>
		<path fill="#F18F01" d="M468.289,33.578c0.354,0,0.914-0.048,1.46,0.011c0.879,0.095,1.718,0.323,2.388,0.973
			c0.627,0.607,0.925,1.333,0.826,2.194c-0.096,0.838-0.238,1.671-0.354,2.508c-0.049,0.352-0.106,0.707-0.111,1.061
			c-0.017,1.072-0.006,2.146-0.012,3.218c-0.015,2.088,0.502,4.039,1.434,5.905c0.697,1.397,1.471,2.749,2.313,4.063
			c0.298,0.466,0.577,0.933,0.739,1.474c0.18,0.597,0.137,1.158-0.126,1.701c-0.623,1.293-1.498,2.289-3.038,2.439
			c-0.839,0.083-1.681,0.152-2.521,0.211c-0.613,0.043-1.222,0.096-1.844,0.006c-1.314-0.188-2.485-0.73-3.642-1.334
			c-0.057-0.029-0.108-0.068-0.158-0.111c-1.424-1.258-2.726-2.623-3.418-4.433c-0.476-1.243-0.871-2.517-1.283-3.782
			c-0.336-1.027-0.414-2.101-0.475-3.169c-0.051-0.94-0.006-1.886-0.043-2.828c-0.047-1.178,0.154-2.33,0.309-3.488
			c0.148-1.126,0.313-2.251,0.47-3.377c0.053-0.39,0.052-0.775-0.096-1.152c-0.07-0.18-0.111-0.374-0.148-0.565
			c-0.072-0.384,0.016-0.559,0.389-0.659c0.596-0.16,1.192-0.34,1.802-0.417C464.791,33.817,466.422,33.469,468.289,33.578z"/>
		<path fill="#F18F01" d="M469.961,20.656c0.797-0.023,1.547,0.165,2.301,0.392c1.267,0.38,1.729,1.315,1.256,2.686
			c-0.421,1.221-1.276,2.113-2.528,2.529c-0.736,0.244-1.503,0.404-2.26,0.589c-0.504,0.124-1.012,0.233-1.521,0.336
			c-0.499,0.1-0.909,0.315-1.207,0.749c-0.165,0.239-0.377,0.45-0.594,0.645c-0.217,0.193-0.449,0.382-0.704,0.517
			c-0.447,0.237-0.896,0.262-1.397,0.053c-0.794-0.33-1.301-0.947-1.805-1.581c-0.221-0.277-0.409-0.58-0.612-0.871
			c-0.019-0.026-0.04-0.052-0.058-0.078c-0.791-1.104-0.741-2.015,0.254-2.935c0.215-0.198,0.443-0.385,0.687-0.545
			c1.901-1.258,3.967-2.071,6.252-2.282C468.67,20.801,469.313,20.725,469.961,20.656z"/>
	</g>
</g>
<g id="Layer_2">
	<g>
		<path fill="#9B1B30" d="M254.315,34.264c-0.019-1.699,0.192-3.378,0.482-5.042c0.382-2.186,1.537-3.911,3.361-5.18
			c0.487-0.339,1.034-0.561,1.609-0.679c1.469-0.303,2.95-0.495,4.458-0.412c1.155,0.063,2.25,0.364,3.295,0.825
			c1.327,0.584,2.186,1.608,2.59,3.003c0.262,0.905,0.5,1.817,0.772,2.719c0.167,0.555,0.066,1.104-0.011,1.644
			c-0.217,1.511-0.473,3.017-0.718,4.524c-0.026,0.159-0.07,0.316-0.113,0.472c-0.243,0.877-0.471,1.758-0.736,2.628
			c-0.369,1.211-0.749,2.42-1.158,3.618c-0.173,0.509-0.235,1.012-0.158,1.535c0.208,1.414,0.686,2.715,1.7,3.759
			c0.962,0.99,1.702,2.138,2.368,3.33c0.587,1.049,1.118,2.133,1.63,3.221c0.712,1.515,1.108,3.104,1.234,4.785
			c0.073,0.961-0.056,1.862-0.244,2.784c-0.227,1.114-0.424,2.235-0.597,3.359c-0.258,1.673-0.677,3.308-1.134,4.934
			c-0.062,0.218-0.144,0.435-0.251,0.632c-0.546,1.002-1.171,1.951-1.897,2.834c-0.361,0.439-0.796,0.764-1.339,0.938
			c-0.403,0.13-0.809,0.249-1.206,0.394c-1.801,0.654-3.513,0.326-5.209-0.41c-0.886-0.386-1.58-0.979-2.263-1.65
			c-2.017-1.987-2.999-4.456-3.451-7.174c-0.154-0.924-0.17-1.875-0.201-2.814c-0.069-2.146-0.109-4.291-0.157-6.438
			c-0.02-0.92-0.316-1.787-0.505-2.676c-0.057-0.271-0.242-0.445-0.479-0.584c-0.671-0.396-1.406-0.513-2.162-0.463
			c-0.844,0.055-1.683,0.174-2.526,0.238c-0.55,0.042-1.11,0.093-1.656,0.044c-2.105-0.188-4.215-0.351-6.255-0.97
			c-1.375-0.419-2.69-0.969-3.935-1.689c-0.866-0.503-1.528-1.229-2.09-2.021c-0.762-1.075-0.639-2.058,0.336-2.954
			c0.785-0.722,1.729-1.156,2.73-1.466c1.651-0.513,3.346-0.817,5.064-1.008c0.904-0.101,1.804-0.246,2.705-0.375
			c0.362-0.052,0.676-0.208,0.961-0.442c1.158-0.948,2.305-1.91,3.491-2.821c1.095-0.841,1.538-1.985,1.656-3.291
			C254.357,35.373,254.315,34.816,254.315,34.264z"/>
		<path fill="#9B1B30" d="M129.304,46.666c-0.737,0.824-1.351,1.559-1.825,2.415c-0.851,1.535-1.672,3.093-2.615,4.571
			c-1.178,1.848-2.673,3.443-4.321,4.885c-1.537,1.344-3.35,1.811-5.357,1.513c-0.38-0.056-0.754-0.192-1.115-0.332
			c-0.394-0.151-0.762-0.366-1.154-0.524c-0.807-0.327-1.436-0.873-1.999-1.521c-0.905-1.044-1.037-2.207-0.531-3.449
			c0.319-0.781,0.66-1.551,0.884-2.371c0.18-0.664,0.522-1.278,1-1.771c1.354-1.398,2.269-3.087,3.24-4.743
			c0.477-0.813,0.99-1.604,1.484-2.406c0.084-0.136,0.158-0.278,0.228-0.401c-0.138-0.324-0.397-0.219-0.603-0.215
			c-2.016,0.042-4.031,0.107-6.047,0.139c-1.22,0.019-2.396-0.213-3.484-0.796c-0.719-0.385-1.408-0.812-1.932-1.46
			c-0.538-0.667-0.567-1.146-0.055-1.849c0.448-0.615,1.002-1.098,1.734-1.371c1.253-0.467,2.533-0.847,3.842-1.097
			c2.364-0.452,4.731-0.891,7.109-1.257c1.605-0.248,3.229-0.388,4.848-0.529c2.009-0.174,4.023-0.287,6.033-0.448
			c1.588-0.127,3.172-0.318,4.761-0.426c1.881-0.127,3.767-0.276,5.65-0.266c1.587,0.008,3.178,0.19,4.759,0.373
			c0.669,0.077,1.331,0.31,1.97,0.542c1.678,0.613,2.165,1.931,1.326,3.504c-0.682,1.28-1.673,2.239-3.025,2.781
			c-0.844,0.339-1.711,0.618-2.57,0.918c-0.245,0.086-0.496,0.153-0.8,0.247c-0.33,1.479-0.139,2.837,0.985,3.937
			c0.579,0.566,1.231,1.064,1.89,1.538c1.241,0.893,2.513,1.743,3.767,2.618c0.293,0.205,0.58,0.422,0.847,0.658
			c0.956,0.848,1.145,1.66,0.7,2.884c-0.247,0.681-0.617,1.292-1.062,1.855c-2.003,2.539-4.626,4.051-7.793,4.617
			c-0.926,0.165-1.872,0.221-2.808,0.326c-0.065,0.008-0.13,0.01-0.195,0.01c-0.612,0.006-1.2,0.281-1.834,0.109
			c-1.415-0.382-2.811-0.807-4.039-1.639c-0.764-0.52-1.355-1.217-1.891-1.955c-0.289-0.396-0.461-0.864-0.497-1.36
			c-0.042-0.583-0.093-1.17-0.069-1.753c0.063-1.559,0.11-3.118,0.368-4.66c0.059-0.354,0.144-0.701,0.191-1.055
			C129.327,47.24,129.304,47.024,129.304,46.666z"/>
		<path fill="#9B1B30" d="M235.99,47.165c0,0.716-0.007,1.432,0.002,2.148c0.008,0.728-0.134,1.426-0.425,2.087
			c-0.209,0.475-0.437,0.945-0.692,1.396c-0.742,1.313-1.728,2.446-2.758,3.529c-0.464,0.487-1.072,0.84-1.623,1.241
			c-0.315,0.23-0.664,0.416-0.969,0.658c-1.881,1.491-4.045,2.295-6.376,2.777c-2.366,0.489-4.721,0.408-7.089,0.115
			c-0.484-0.061-0.971-0.115-1.448-0.213c-1.621-0.326-3.088-1.016-4.403-2.006c-0.462-0.349-0.881-0.778-1.244-1.231
			c-1.107-1.385-1.976-2.901-2.338-4.662c-0.186-0.901-0.177-1.813-0.052-2.72c0.227-1.642,0.473-3.28,0.705-4.92
			c0.175-1.242,0.61-2.392,1.234-3.47c0.784-1.354,1.671-2.636,2.688-3.83c0.732-0.859,1.632-1.495,2.613-2.014
			c0.861-0.456,1.754-0.853,2.633-1.276c0.234-0.113,0.477-0.212,0.697-0.347c1.274-0.778,2.67-1.142,4.138-1.36
			c1.142-0.17,2.195,0.001,3.242,0.413c0.333,0.131,0.674,0.244,1.019,0.337c1.612,0.436,3.123,1.111,4.584,1.906
			c0.72,0.391,1.367,0.872,1.938,1.465c1.087,1.129,2.127,2.288,2.818,3.716c0.703,1.454,1.164,2.962,1.109,4.599
			C235.975,46.057,235.991,46.611,235.99,47.165z M220.687,44.05c-1.352,0.727-1.739,1.923-1.823,3.277
			c-0.032,0.515-0.006,1.034-0.021,1.55c-0.021,0.85,0.013,1.691,0.346,2.488c0.558,1.336,2.277,1.894,3.517,1.14
			c1.042-0.633,1.731-1.545,2.12-2.697c0.267-0.788,0.21-1.601,0.236-2.41c0.023-0.698-0.281-1.191-0.87-1.511
			c-0.455-0.247-0.928-0.462-1.403-0.671C222.079,44.903,221.343,44.638,220.687,44.05z"/>
		<path fill="#9B1B30" d="M236.7,72.078c0.632,0.02,1.478,0.025,2.321,0.076c1.266,0.076,2.535,0.144,3.793,0.289
			c2.293,0.264,4.584,0.558,6.869,0.887c1.318,0.189,2.626,0.456,3.932,0.722c1.593,0.324,3.187,0.648,4.764,1.036
			c2.241,0.551,4.469,1.15,6.697,1.751c0.532,0.144,1.046,0.356,1.557,0.566c0.268,0.108,0.523,0.264,0.762,0.429
			c0.401,0.275,0.596,0.664,0.595,1.163c0,0.832-0.188,1.61-0.599,2.335c-0.47,0.827-1.078,1.548-1.732,2.229
			c-0.586,0.61-1.187,1.207-1.794,1.797c-1.156,1.121-2.515,1.959-3.918,2.719c-3.404,1.841-6.817,3.664-10.241,5.466
			c-3.254,1.714-6.701,2.813-10.367,3.241c-1.981,0.23-3.964,0.248-5.945,0.185c-1.777-0.056-3.25-0.827-4.372-2.233
			c-0.477-0.6-0.562-1.219-0.19-1.901c0.365-0.672,0.866-1.219,1.488-1.653c0.992-0.693,2.07-1.236,3.206-1.639
			c1.563-0.553,3.144-1.052,4.724-1.553c2.448-0.776,4.905-1.525,7.353-2.305c1.086-0.347,2.127-0.808,3.11-1.393
			c0.397-0.236,0.747-0.518,0.957-0.945c0.319-0.65,0.285-1.33,0.135-2.002c-0.044-0.195-0.225-0.412-0.404-0.517
			c-0.418-0.243-0.859-0.468-1.317-0.62c-1.547-0.518-3.147-0.805-4.761-1.027c-2.094-0.289-4.186-0.596-6.28-0.875
			c-1.386-0.186-2.775-0.347-4.165-0.502c-1.165-0.13-2.334-0.234-3.453-0.604c-0.584-0.192-1.151-0.444-1.711-0.703
			c-0.699-0.323-1.202-0.889-1.64-1.498c-0.497-0.691-0.363-1.579,0.579-1.874c0.65-0.204,1.304-0.416,1.972-0.547
			C231.221,72.07,233.842,71.863,236.7,72.078z"/>
		<path fill="#9B1B30" d="M170.213,67.536c-0.048,0.062-0.077,0.084-0.086,0.112c-0.492,1.469-0.721,2.973-0.479,4.509
			c0.21,1.329,0.217,2.659,0.122,3.989c-0.076,1.067-0.626,1.969-1.236,2.82c-0.169,0.237-0.375,0.448-0.553,0.682
			c-0.808,1.061-2.376,1.504-3.696,0.955c-2.008-0.836-3.831-1.93-5.268-3.596c-0.616-0.714-1.255-1.408-1.849-2.141
			c-0.598-0.738-1.036-1.573-1.324-2.483c-0.274-0.866-0.658-1.7-0.79-2.61c-0.056-0.381-0.113-0.763-0.165-1.113
			c-0.381-0.271-0.785-0.234-1.168-0.253c-1.56-0.074-3.122-0.104-4.679-0.206c-1.719-0.113-3.443-0.211-5.138-0.557
			c-0.958-0.194-1.884-0.475-2.793-0.849c-1.027-0.424-1.823-1.104-2.529-1.93c-0.987-1.152-0.75-2.134,0.423-2.839
			c0.552-0.332,1.153-0.611,1.765-0.813c2.543-0.832,5.156-1.314,7.821-1.585c2.83-0.287,5.649-0.211,8.478-0.04
			c1.623,0.1,3.253,0.086,4.879,0.085c2.311-0.003,4.621-0.054,6.931-0.061c2.472-0.009,4.944-0.011,7.414,0.167
			c0.968,0.07,1.95-0.01,2.923-0.071c1.248-0.079,2.471,0.058,3.676,0.353c0.726,0.178,1.445,0.389,2.154,0.621
			c1.275,0.42,1.708,1.156,1.095,2.582c-0.307,0.713-0.792,1.336-1.326,1.904c-0.34,0.362-0.787,0.566-1.249,0.74
			c-1.448,0.541-2.943,0.822-4.489,0.8c-1.596-0.022-3.19,0.013-4.777,0.161c-1.132,0.105-2.257,0.291-3.382,0.457
			C170.667,67.367,170.425,67.473,170.213,67.536z"/>
		<path fill="#9B1B30" d="M133.37,23.101c1.597-0.178,3.252,0.697,4.875,1.699c0.79,0.487,0.797,1.241,0.502,1.859
			c-0.332,0.699-0.808,1.234-1.602,1.45c-1.444,0.395-2.891,0.698-4.403,0.731c-1.88,0.041-3.761,0.167-5.636,0.315
			c-0.837,0.066-1.684,0.205-2.49,0.437c-0.875,0.251-1.847-0.451-2.229-1.196c-0.111-0.217-0.122-0.454-0.002-0.656
			c0.197-0.333,0.385-0.691,0.658-0.954c0.395-0.38,0.829-0.741,1.304-1.01c1.017-0.574,2.056-1.113,3.11-1.614
			C129.196,23.336,131.071,23.169,133.37,23.101z"/>
	</g>
</g>
</svg>
