<?xml version="1.0" encoding="utf-8"?>
<!-- Generator: Adobe Illustrator 16.0.0, SVG Export Plug-In . SVG Version: 6.00 Build 0)  -->
<!DOCTYPE svg PUBLIC "-//W3C//DTD SVG 1.1//EN" "http://www.w3.org/Graphics/SVG/1.1/DTD/svg11.dtd">
<svg version="1.1" id="Layer_1" xmlns="http://www.w3.org/2000/svg" xmlns:xlink="http://www.w3.org/1999/xlink" x="0px" y="0px"
	 width="800px" height="800px" viewBox="0 0 800 800" enable-background="new 0 0 800 800" xml:space="preserve">
<g>
	<path fill-rule="evenodd" clip-rule="evenodd" fill="#792C07" d="M0.391,0.391c266.667,0,533.333,0,800,0
		c0,266.667,0,533.333,0,800c-266.667,0-533.333,0-800,0C0.391,533.724,0.391,267.058,0.391,0.391z M51.406,180.245
		c1.691,3.199,3.141,6.711,5.253,9.766c3.55,5.135,7.387,10.09,11.35,14.917c5.288,6.44,9.601,13.6,15.273,19.777
		c4.426,4.82,8.371,9.99,13.46,14.279c7.168,6.041,13.808,12.72,20.556,19.248c3.709,3.588,7.838,6.364,12.791,7.856
		c6.894,2.076,13.916,3.801,20.657,6.29c7.759,2.866,15.704,4.837,23.756,6.538c7.86,1.661,15.708,3.381,23.55,5.125
		c6.002,1.335,11.937,2.971,18.191,2.781c2.021-0.061,4.135,0.25,6.081,0.819c8.499,2.485,17.346,2.469,25.995,3.837
		c6.177,0.977,12.308,2.239,18.474,3.293c5.496,0.939,10.984,2.083,16.525,2.549c4.875,0.41,9.536,1.137,13.595,3.958
		c1.763,1.226,3.556,1.617,5.62,1.534c1.11-0.044,2.255,0.154,3.346,0.406c3.721,0.857,7.399,1.917,11.143,2.655
		c4.51,0.889,9.074,1.499,13.606,2.281c5.286,0.912,10.543,2.016,15.849,2.789c6.401,0.934,12.829,1.745,19.268,2.358
		c7.112,0.677,14.244,1.326,21.379,1.518c7.193,0.193,14.403-0.126,21.603-0.347c3.275-0.101,6.547-0.45,9.811-0.781
		c4.595-0.465,9.19-0.937,13.766-1.557c4.809-0.652,9.661-1.195,14.372-2.305c6.071-1.43,12.021-3.378,18.023-5.096
		c0.482-0.138,1.064-0.444,1.458-0.296c3.937,1.487,7.932,0.98,11.996,0.757c6.928-0.382,13.882-0.255,20.82-0.488
		c4.624-0.155,9.168-0.754,13.178-3.458c1.414-0.954,2.979-2.034,4.592-2.276c3.445-0.516,6.346-2.027,8.924-4.139
		c2.521-2.066,4.627-4.652,7.202-6.637c2.522-1.943,5.175-4.023,8.866-2.659c1.223,0.452,2.688,0.542,4.002,0.407
		c5.799-0.593,11.664-0.944,17.348-2.131c4.567-0.954,9.002-2.607,12.798-5.771c3.216-2.681,6.875-4.861,10.467-7.051
		c3.754-2.289,7.66-4.327,11.505-6.465c0.322-0.178,0.693-0.41,1.031-0.395c4.801,0.208,9.464-0.508,14.027-1.977
		c2.114-0.68,4.424-0.991,6.331-2.041c7.939-4.371,13.904-10.986,19.649-17.822c0.634-0.754,1.51-1.782,2.318-1.824
		c2.708-0.142,5.463,0.384,8.152,0.135c3.672-0.341,7.361-0.916,10.933-1.827c5.762-1.469,10.782-4.615,15.653-7.9
		c2.46-1.66,4.597-3.794,6.934-5.645c0.45-0.356,1.161-0.572,1.738-0.548c5.47,0.222,10.669-1.017,15.867-2.561
		c4.714-1.4,8.07-4.83,12.008-7.396c3.58-2.333,6.215-5.544,8.32-9.17c1.601-2.757,2.89-5.694,4.359-8.529
		c0.247-0.476,0.631-1.053,1.085-1.221c2.017-0.748,4.149-1.207,6.118-2.055c7.158-3.083,13.784-6.762,16.862-14.648
		c2.182-5.589,3.666-11.302,3.887-17.295c0.052-1.391,0.502-2.299,1.624-2.995c0.703-0.436,1.384-0.91,2.062-1.385
		c5.872-4.12,8.493-9.844,8.032-16.916c-0.2-3.053-0.729-6.093-3.153-8.424c-1.722-1.656-3.451-3.357-4.864-5.269
		c-3.607-4.877-8.795-7.357-14.104-9.673c-5.56-2.424-11.287-4.497-16.71-7.19c-5.293-2.629-10.712-4.735-16.42-6.195
		c-7.369-1.885-14.539-4.301-21.398-7.674c-3.064-1.508-6.38-2.598-9.682-3.514c-7.794-2.163-15.625-4.204-23.486-6.105
		c-5.267-1.273-10.592-2.33-15.926-3.286c-5.224-0.937-10.489-1.634-15.74-2.414c-5.25-0.78-10.49-1.666-15.762-2.259
		c-5.05-0.568-10.135-0.834-15.206-1.206c-7.323-0.536-14.643-1.158-21.975-1.532c-5.957-0.304-11.93-0.257-17.894-0.452
		c-1.786-0.058-3.571-0.353-5.343-0.627c-3.409-0.529-6.797-1.209-10.215-1.668c-4.575-0.614-9.178-1.015-13.753-1.624
		c-5.263-0.701-10.524-1.43-15.756-2.325c-6.667-1.141-13.299-2.487-19.955-3.694c-6.281-1.139-12.558-2.329-18.868-3.279
		c-5.513-0.83-11.142-1.004-16.591-2.103c-8.068-1.626-15.971-4.041-24.248-4.634c-5.12-0.367-10.223-0.983-15.33-1.511
		c-2.36-0.244-4.711-0.59-7.073-0.806c-1.92-0.175-3.869-0.443-5.774-0.287c-4.6,0.376-9.18,0.986-13.77,1.485
		c-2.746,0.298-5.512,0.451-8.238,0.871c-4.289,0.661-8.554,1.479-12.825,2.256c-6.154,1.118-12.316,2.195-18.452,3.405
		c-7.133,1.406-14.24,2.94-21.36,4.412c-6.183,1.278-12.416,2.35-18.538,3.87c-6.737,1.673-13.341,3.878-20.065,5.611
		c-4.564,1.176-9.271,1.79-13.85,2.918c-8.229,2.028-16.417,4.222-24.607,6.408c-5.847,1.561-11.782,2.9-17.473,4.916
		c-9.183,3.252-18.041,7.321-27.682,9.365c-7.648,1.621-15.074,4.267-22.641,6.302c-7.26,1.952-14.621,3.542-21.85,5.598
		c-5.45,1.55-10.679,3.902-16.154,5.333c-10.308,2.695-20.55,5.445-30.442,9.541c-8.589,3.557-17.413,6.595-26.271,9.432
		c-4.465,1.43-8.578,3.162-12.621,5.627c-8.146,4.967-15.273,11.104-22.08,17.642c-2.936,2.821-5.301,6.259-7.776,9.529
		c-1.91,2.523-3.769,5.121-5.32,7.872c-1.635,2.898-2.547,6.063-0.671,9.276c0.43,0.735,1.14,1.732,1.795,1.792
		c0.654,0.059,1.527-0.799,2.084-1.444c1.812-2.101,3.524-4.288,5.124-6.257C48.09,179.2,49.782,179.733,51.406,180.245z
		 M642.221,665.978c2.396-2.523,4.607-4.985,6.961-7.302c5.41-5.322,10.521-10.852,13.944-17.746
		c1.682-3.387,3.719-6.602,5.313-10.026c1.253-2.69-0.089-5.203-2.596-5.552c-4.708-0.656-6.874,0.466-9.04,4.684
		c-0.205,0.398-0.372,0.82-0.607,1.201c-2.23,3.608-4.009,7.629-6.807,10.727c-5.745,6.359-11.984,12.277-18.134,18.26
		c-2.042,1.986-4.433,3.614-6.988,5.666c-0.272-15.165-2.555-29.788-2.78-44.535c0.014-0.003-0.321,0.061-0.619,0.117
		c-0.574-1.734,0.622-3.569-1.854-5.156c-2.002-1.285-3.401-2.524-5.941-2.063c-2.591,0.472-3.362,1.002-3.332,3.648
		c0.019,1.544,0.251,3.085,0.368,4.629c0.275,3.609,0.461,7.227,0.823,10.827c0.716,7.116,1.745,14.209,2.24,21.339
		c0.525,7.581,0.752,15.193,0.801,22.794c0.057,8.841-0.217,17.686-0.36,26.528c-0.009,0.581-0.179,1.16-0.191,1.742
		c-0.103,4.595-1.385,9.316,1.045,13.666c0.747,1.337,1.926,2.546,3.189,3.391c0.27,0.18,1.795-1.447,2.686-2.302
		c0.351-0.337,0.604-0.81,0.801-1.265c0.927-2.143,1.562-4.462,2.782-6.417c1.872-2.996,1.536-6.138,1.396-9.351
		c-0.121-2.779-0.157-5.565-0.143-8.348c0.021-3.766,0.503-7.575,0.059-11.278c-0.287-2.385,0.301-3.669,2.167-4.73
		c0.555-0.315,1.064-0.842,1.65-0.938c0.876-0.145,2.042-0.345,2.668,0.085c5.027,3.459,10.717,5.457,16.281,7.771
		c4.15,1.727,8.406,3.415,12.163,5.827c6.818,4.377,13.757,8.316,21.688,10.277c3.991,0.986,7.872,2.632,12.104,2.157
		c0.894-0.101,2.143-0.405,2.53-1.041c1.576-2.581,2.985-5.282,4.213-8.047c0.305-0.687,0.004-2.234-0.541-2.595
		c-1.587-1.048-3.102-2.531-5.357-2.076c-0.871,0.176-1.86,0.179-2.717-0.045c-5.121-1.334-10.209-2.798-15.328-4.138
		c-5.399-1.413-10.248-3.823-14.656-7.281C655.871,674.198,650.373,668.185,642.221,665.978z M392.624,436.764
		c0-6.078-0.045-13.072,0.017-20.064c0.036-4.082,0.125-8.171,0.397-12.242c0.417-6.232,1.117-12.446,1.504-18.679
		c0.393-6.331,0.579-12.676,0.802-19.017c0.079-2.25-0.706-3.014-2.919-3.133c-2.971-0.159-4.803,0.913-4.954,3.017
		c-0.305,4.269-0.512,8.544-0.807,12.814c-0.259,3.745-0.537,7.49-0.89,11.228c-0.437,4.63-1.228,9.242-1.389,13.879
		c-0.322,9.229-0.317,18.471-0.449,27.706c-0.004,0.325-0.001,0.653-0.041,0.975c-0.632,5.051-1.292,10.099-1.9,15.152
		c-0.789,6.534-1.543,13.073-2.301,19.611c-0.294,2.536-1.015,5.095,0.562,7.518c0.243,0.374,0.222,1.04,0.097,1.512
		c-0.961,3.608,1.097,6.024,3.315,8.318c1.101,1.139,2.298,0.958,2.882-0.587c0.854-2.26,1.518-4.59,2.306-6.875
		c1.106-3.209,2.28-6.394,3.373-9.606c1.44-4.232,2.594-8.581,4.309-12.696c1.606-3.855,4.003-7.378,5.657-11.217
		c2.185-5.07,4.851-9.694,9.339-13.064c2.574-1.934,5.096-3.948,7.775-5.723c1.873-1.239,3.112-0.804,3.483,1.367
		c1.114,6.529,2.35,13.074,2.839,19.665c0.48,6.46,0.261,12.989,0.049,19.479c-0.137,4.179-0.61,8.374-1.307,12.499
		c-0.707,4.188,0.636,8.004,4.059,10.406c1.226,0.86,2.201,0.614,2.736-0.503c0.963-2.011,2.062-4.089,2.386-6.246
		c0.771-5.146,1.394-10.348,1.575-15.544c0.194-5.566-0.133-11.155-0.33-16.73c-0.193-5.491-0.415-10.985-0.801-16.466
		c-0.266-3.779-0.856-7.505-2.861-10.886c-1.151-1.942-1.979-4.075-2.982-6.109c-0.307-0.622-0.627-1.267-1.076-1.784
		c-2.584-2.984-5.742-3.051-9.294-2.016c-5.298,1.544-9.53,4.566-12.955,8.776C400.552,426.754,396.361,432.081,392.624,436.764z
		 M161.25,420.243c0.695-0.042,1.401-0.256,1.535-0.065c0.749,1.062,1.618,2.146,1.968,3.361c0.924,3.212,1.648,6.412,4.501,8.676
		c1.181,0.937,1.978,0.723,2.529-0.284c0.843-1.537,1.872-3.192,2.006-4.862c0.655-8.176-3.09-14.582-9.298-19.318
		c-5.785-4.413-12.651-5.193-19.533-2.873c-10.352,3.49-18.771,9.585-23.928,19.496c-1.858,3.57-4.158,7.167-4.888,11.012
		c-1.176,6.194-1.314,12.599-1.71,18.926c-0.416,6.652,0.736,13.021,4.655,18.569c2.068,2.93,4.227,5.916,6.875,8.281
		c2.389,2.133,5.581,3.338,8.278,5.161c4.68,3.163,9.794,4.825,15.418,4.925c4.728,0.083,9.222-0.541,12.941-3.936
		c4.044-3.691,7.629-7.763,9.825-12.786c0.942-2.156,1.197-4.689,1.347-7.078c0.063-0.992,0.206-2.387-1.471-3.157
		c-3.134-1.441-5.857-0.424-8.388,1.025c-2.918,1.672-5.521,3.886-8.329,5.763c-3.333,2.227-6.471,5.014-10.979,4.275
		c-1.205-0.197-2.431-0.266-3.643-0.426c-2.772-0.365-5.198-1.373-6.973-3.672c-0.553-0.716-1.232-1.35-1.925-1.937
		c-5.304-4.493-7.061-10.644-7.761-17.156c-1.109-10.32,3.158-18.813,9.841-26.178c3.682-4.058,8.639-6.482,13.582-8.768
		c1.896-0.876,3.811-1.547,5.919-0.761C156.415,417.491,159.763,417.436,161.25,420.243z M423.847,723.502
		c4.469,0.256,8.868-0.328,12.062-3.586c2.476-2.524,4.53-5.62,6.155-8.779c2.073-4.035,3.563-8.374,5.239-12.608
		c2.378-6.012,3.251-12.271,1.46-18.503c-0.938-3.264-2.902-6.268-4.614-9.268c-3.097-5.428-7.454-9.688-13.383-11.722
		c-2.799-0.961-6.041-0.795-9.086-0.834c-3.394-0.044-6.762,0.75-9.422,2.858c-3.036,2.408-5.794,5.2-8.472,8.018
		c-1.533,1.614-3.073,3.443-3.905,5.465c-2.904,7.065-4.545,14.42-4.28,22.146c0.176,5.139,1.255,10.033,3.167,14.789
		c1.774,4.414,4.717,7.622,9.197,9.333C413.082,722.765,418.435,723.339,423.847,723.502z M136.615,673.845
		c-2.159,2.121-1.927,3.624,0.996,4.687c1.585,0.575,3.474,1.025,5.073,0.723c5.653-1.069,11.295-2.293,16.834-3.841
		c3.872-1.083,7.589-3.01,10.049-6.248c3.651-4.804,4.865-10.5,4.239-16.479c-0.223-2.128-1.27-3.938-3.274-5.188
		c-4.336-2.705-8.857-3.949-14.064-3.479c-7.918,0.715-14.708,3.781-20.331,9.174c-2.955,2.835-5.303,6.326-7.779,9.63
		c-6.062,8.088-7.589,17.412-6.828,27.18c0.512,6.576,3.134,12.539,6.366,18.243c3.239,5.715,7.694,10.022,14.057,11.981
		c4.992,1.537,10.121,3.014,15.369,2.01c3.858-0.738,7.579-2.22,11.332-3.457c0.529-0.175,1.079-0.766,1.305-1.297
		c0.964-2.267,2.01-4.529,2.652-6.896c0.868-3.193-1.287-5.915-4.391-5.492c-2.763,0.377-5.701,0.801-8.116,2.06
		c-3.058,1.595-6.104,1.936-9.358,1.771c-0.959-0.049-1.939-0.146-2.86-0.398c-2.816-0.772-5.858-1.183-8.353-2.563
		c-3.706-2.052-5.246-6.084-7.042-9.732c-0.414-0.841-0.737-1.815-0.773-2.74c-0.353-9.217,1.458-17.929,5.876-26.114
		c3.807-7.051,9.73-10.896,17.449-12.189c0.816-0.137,2.14,0.253,2.577,0.864c1.044,1.459,1.783,3.16,2.485,4.831
		c0.608,1.448,0.08,2.742-1.123,3.68c-2.711,2.115-5.287,4.486-8.247,6.177c-2.857,1.631-6.067,2.738-9.241,3.677
		C140.059,674.84,138.232,675.089,136.615,673.845z M668.405,428.948c0-3.189,0-5.402-0.001-7.615
		c-0.001-3.782-2.117-5.768-5.754-4.902c-4.616,1.098-4.528,0.599-4.91,4.952c-0.025,0.292-0.299,0.729-0.548,0.808
		c-1.757,0.558-1.398,1.964-1.332,3.223c0.055,1.021,0.345,2.037,0.32,3.051c-0.06,2.58-0.137,5.168-0.393,7.735
		c-0.324,3.248-0.699,6.503-1.292,9.711c-0.784,4.236-3.221,7.668-6.037,10.775c-3.209,3.541-6.657,6.877-12.054,6.138
		c-2.568-0.352-5.274-0.358-7.22-2.62c-2.82-3.277-5.017-6.949-6.034-11.103c-1.093-4.463-1.826-9.039-2.347-13.608
		c-0.519-4.547-1.049-9.188-0.649-13.706c0.218-2.477-1.231-3.486-2.104-5.064c-0.172-0.311-1.09-0.397-1.588-0.275
		c-0.358,0.088-0.797,0.67-0.844,1.072c-0.326,2.811-0.498,5.64-0.837,8.449c-0.431,3.566-1.061,7.111-1.436,10.683
		c-0.283,2.7-0.604,5.456-0.355,8.136c0.289,3.112,0.892,6.264,1.867,9.23c2.385,7.252,5.256,14.229,11.57,19.221
		c5.461,4.317,15.631,5.73,21.937,1.517c9.46-6.321,14.864-15.292,18.06-25.844C668.49,442.092,668.449,435.019,668.405,428.948z"/>
	<path fill-rule="evenodd" clip-rule="evenodd" fill="#792C07" d="M474.14,246.883c-5.77,2.493-10.75,6.271-16.989,7.623
		c-3.106,0.673-5.934,2.655-8.871,4.077c-4.953,2.399-9.982,4.691-15.49,5.334c-3.292,0.384-6.664,0.151-9.998,0.094
		c-2.646-0.045-5.287-0.27-7.932-0.373c-3.566-0.138-6.684-1.436-9.579-3.458c-7.018-4.903-14.985-7.59-23.142-9.842
		c-5.588-1.543-11.105-3.369-16.738-4.717c-3.527-0.845-7.197-1.266-10.825-1.467c-4.413-0.245-8.859-0.247-13.272-0.003
		c-4.085,0.226-8.141,0.948-12.216,1.391c-3.194,0.347-6.406,0.536-9.597,0.912c-5.914,0.696-11.855,1.265-17.71,2.306
		c-3.273,0.582-6.046-0.473-8.053-2.381c-3.31-3.148-7.412-4.162-11.393-5.679c-4.764-1.814-9.626-3.439-14.212-5.635
		c-5.569-2.665-11.303-4.576-17.286-6.08c-9.818-2.468-19.533-5.259-29.026-8.95c-8.707-3.384-17.96-5.334-26.799-8.414
		c-7.701-2.683-15.23-5.9-22.707-9.174c-9.488-4.153-18.809-8.686-28.279-12.883c-3.84-1.702-7.967-2.754-11.81-4.451
		c-4.491-1.983-8.814-4.349-13.212-6.544c-5.029-2.511-10.062-5.014-15.09-7.526c-2.003-1.001-2.225-1.503-0.333-2.76
		c2.852-1.894,5.865-3.768,9.081-4.835c4.449-1.478,9.103-2.549,13.752-3.163c7.255-0.958,14.576-1.441,21.877-2.019
		c4.63-0.366,9.284-0.847,13.911-0.714c5.054,0.145,10.098,0.858,15.129,1.472c4.507,0.549,8.999,1.237,13.479,1.979
		c4.09,0.678,8.138,1.632,12.238,2.223c2.104,0.303,4.303,0.262,6.429,0.058c5.441-0.522,10.854-0.683,16.3,0.002
		c2.683,0.337,5.436,0.127,8.119,0.465c4.053,0.511,8.08,1.242,12.104,1.956c5.592,0.991,11.17,2.064,16.758,3.08
		c5.778,1.05,11.555,2.105,17.342,3.1c7.807,1.342,15.641,2.527,23.429,3.968c7.273,1.345,14.465,3.158,21.758,4.37
		c11.541,1.918,22.639,5.603,34.017,8.16c4.712,1.059,9.243,2.9,13.925,4.121c6.165,1.608,12.41,2.906,18.597,4.432
		c3.834,0.945,7.629,2.047,11.433,3.108c8.408,2.344,16.86,4.547,25.196,7.125c4.373,1.353,8.555,3.338,12.793,5.11
		c2.652,1.109,5.354,2.17,7.834,3.599c1.806,1.04,3.225,2.728,4.924,3.981c3.854,2.848,6.082,7.113,9.29,10.479
		c4.041,4.239,6.339,9.441,9.217,14.34C472.929,245.391,473.494,246.018,474.14,246.883z"/>
	<path fill-rule="evenodd" clip-rule="evenodd" fill="#792C07" d="M331.451,122.631c0.885-0.727,1.877-1.356,2.634-2.197
		c2.408-2.677,4.645-5.512,7.115-8.129c1.489-1.579,3.229-2.941,4.959-4.267c3.214-2.465,5.702-5.483,7.82-8.94
		c2.03-3.313,4.332-6.49,6.789-9.502c3.984-4.884,7.982-9.79,12.364-14.309c4.937-5.09,11.353-7.97,18.156-9.429
		c6.175-1.324,12.574-2.54,18.83-2.35c10.929,0.332,21.751,2.047,31.937,6.545c5.715,2.524,11.407,5.231,17.353,7.076
		c13.749,4.266,27.68,7.943,41.463,12.103c4.869,1.47,9.57,3.539,14.267,5.527c9.461,4.006,19.046,7.647,28.838,10.781
		c3.069,0.983,5.898,2.724,8.83,4.133c1.388,0.667,2.688,1.684,4.146,2.004c4.994,1.096,8.457,4.612,12.309,7.489
		c6.136,4.581,10.21,10.971,14.665,17.028c1.973,2.683,4.001,5.366,6.315,7.746c4.452,4.579,9.15,8.919,13.69,13.415
		c0.926,0.916,1.602,2.083,2.478,3.248c-3.696,0.379-7.077,0.603-10.419,1.093c-9.408,1.381-18.788,2.878-27.66,6.59
		c-4.939,2.066-9.917,4.112-15.03,5.658c-2.098,0.634-4.678,0.269-6.905-0.232c-7.021-1.581-14.007-3.341-20.954-5.227
		c-4.969-1.349-8.92-4.605-13.092-7.459c-5.057-3.458-10.945-5.096-16.634-7.183c-6.283-2.306-12.451-4.926-18.68-7.386
		c-7.54-2.978-15.27-5.299-23.184-7.104c-6.98-1.592-13.839-3.712-20.803-5.381c-5.145-1.233-10.374-2.108-15.563-3.157
		c-4.124-0.834-8.225-1.803-12.37-2.503c-3.659-0.618-7.356-1.106-11.057-1.37c-7.144-0.509-14.304-0.787-21.453-1.224
		c-5.462-0.334-10.914-0.871-16.379-1.125c-5.644-0.262-11.301-0.213-16.945-0.454c-2.594-0.111-5.172-0.588-7.757-0.899
		C331.5,123.036,331.475,122.833,331.451,122.631z"/>
	<path fill-rule="evenodd" clip-rule="evenodd" fill="#792C07" d="M234.806,157.789c6.795-2.874,14.06-5.966,21.342-9.018
		c3.291-1.379,6.618-2.671,9.923-4.017c3.013-1.227,5.975-2.594,9.036-3.682c4.979-1.769,10.008-3.395,15.043-4.996
		c1.083-0.345,2.3-0.548,3.42-0.443c5.024,0.47,9.582-1.471,14.295-2.6c1.175-0.282,2.559-0.35,3.451-1.033
		c3.354-2.57,6.852-0.875,10.294-0.617c1.912,0.143,3.805,0.541,5.717,0.675c2.899,0.204,5.809,0.384,8.713,0.38
		c3.166-0.004,6.331-0.231,9.496-0.36c6.396-0.262,12.816-0.27,19.182-0.864c5.261-0.492,10.416-0.125,15.611,0.443
		c2.242,0.246,4.505,0.375,6.76,0.404c8.389,0.108,16.539,1.782,24.692,3.539c4.325,0.932,8.762,1.372,13.063,2.392
		c5.72,1.356,11.346,3.103,17.031,4.608c5.605,1.484,11.305,2.65,16.836,4.366c6.746,2.094,13.379,4.564,20.025,6.966
		c5.938,2.146,11.762,4.62,17.756,6.583c6.191,2.028,12.036,4.586,17.269,8.521c5.42,4.075,11.702,6.166,18.25,7.578
		c1.291,0.278,2.563,0.642,3.965,0.997c-1.495,3.638-2.569,7.396-4.527,10.617c-1.338,2.199-3.886,3.678-5.939,5.422
		c-2.886,2.452-5.791,4.882-8.736,7.262c-1.938,1.565-3.979,3-5.936,4.541c-0.945,0.745-1.702,1.78-2.728,2.355
		c-1.044,0.586-2.325,1.101-3.482,1.061c-2.55-0.088-5.081-0.722-7.632-0.813c-4.59-0.164-9.188-0.097-13.783-0.108
		c-0.376-0.001-0.758,0.218-1.128,0.195c-6.329-0.398-12.334,1.177-18.348,2.851c-2.511,0.699-5.148,0.924-7.705,1.473
		c-3.086,0.662-5.186-1.554-7.586-2.656c-6.793-3.117-13.366-6.647-20.748-8.387c-7.128-1.68-14.117-3.934-21.219-5.734
		c-7.719-1.957-15.512-3.619-23.243-5.528c-4.761-1.176-9.451-2.639-14.202-3.855c-7.098-1.817-14.237-3.473-21.332-5.302
		c-7.835-2.021-15.601-4.323-23.466-6.211c-11.22-2.693-22.499-5.134-33.759-7.656c-7.342-1.644-14.677-3.322-22.048-4.816
		c-3.379-0.685-6.833-1.038-10.267-1.414c-6.55-0.718-13.187-0.719-19.594-2.586C237.173,157.914,235.662,157.902,234.806,157.789z"
		/>
	<path fill-rule="evenodd" clip-rule="evenodd" fill="#792C07" d="M54.603,168.896c6.727-0.174,12.863-0.78,18.934-0.383
		c8.733,0.57,17.378,2.047,25.718,4.934c3.362,1.163,7.025,1.68,10.137,3.291c4.636,2.401,8.797,5.701,13.358,8.266
		c4.782,2.688,9.778,5,14.715,7.405c5.977,2.912,12.009,5.707,17.98,8.629c5.809,2.843,11.484,5.973,17.375,8.63
		c6.508,2.937,13.081,5.814,19.833,8.107c8.136,2.763,16.52,4.789,24.738,7.323c4.32,1.332,8.438,3.343,12.784,4.565
		c8.583,2.412,17.301,4.347,25.881,6.77c3.721,1.051,7.37,2.565,10.818,4.325c5.796,2.957,12.035,4.551,18.141,6.583
		c1.66,0.552,3.333,1.316,4.729,2.351c2.364,1.751,5.241,2.987,6.596,5.882c0.293,0.628,0.731,1.24,0.832,1.9
		c1.677,10.948-1.583,20.429-8.899,28.524c-2.82,3.121-6.739,4.874-10.831,5.208c-2.825,0.231-5.803-0.747-8.64-1.468
		c-7.5-1.905-15.033-3.536-22.756-4.267c-8.659-0.818-17.256-2.021-25.717-4.171c-2.707-0.688-5.646-0.399-8.416-0.91
		c-5.136-0.946-10.232-2.123-15.333-3.258c-7.275-1.619-14.546-3.256-21.807-4.94c-7.071-1.64-14.101-3.311-20.93-5.956
		c-7.353-2.848-15.024-4.873-22.549-7.278c-3.321-1.062-6.141-2.802-8.724-5.272c-4.834-4.622-10.106-8.783-15.042-13.303
		c-2.765-2.532-4.952-5.744-7.875-8.044c-5.376-4.23-8.604-10.191-13.001-15.194c-4.474-5.09-8.549-10.549-12.552-16.028
		c-3.65-4.997-7.175-10.112-10.377-15.404C60.553,180.473,57.855,174.944,54.603,168.896z"/>
	<path fill-rule="evenodd" clip-rule="evenodd" fill="#792C07" d="M370.75,61.847c-1.442,2-2.926,4.032-4.383,6.084
		c-3.366,4.742-6.504,9.668-10.149,14.186c-2.658,3.296-6.013,6.024-8.991,9.07c-4.06,4.149-8.047,8.368-12.085,12.537
		c-1.334,1.377-2.842,2.599-4.079,4.055c-4.544,5.351-10.175,9.222-16.365,12.391c-3.052,1.562-5.94,3.489-9.089,4.806
		c-4.513,1.889-9.137,3.566-13.821,4.977c-6.03,1.816-12.354,2.787-18.204,5.03c-6.158,2.361-12.261,5.003-17.94,8.563
		c-3.077,1.928-6.77,2.905-10.236,4.172c-7.711,2.818-15.452,5.556-23.191,8.297c-0.528,0.187-1.142,0.181-1.716,0.183
		c-4.491,0.014-8.989,0.157-13.472-0.03c-5.593-0.233-11.225-0.404-16.747-1.226c-5.91-0.88-11.705-2.523-17.567-3.75
		c-1.501-0.314-3.068-0.426-4.605-0.434c-8.201-0.041-16.413-0.272-24.601,0.053c-8.481,0.336-16.958,1.076-25.402,1.963
		c-3.183,0.334-6.043,0.355-8.904-1.282c-3.162-1.809-4.951-5.089-3.956-8.606c0.616-2.177,1.576-4.314,2.748-6.249
		c0.501-0.827,1.899-1.176,2.947-1.597c7.576-3.041,15.093-6.251,22.777-8.992c5.869-2.093,12.005-3.427,17.931-5.376
		c4.962-1.633,9.702-3.965,14.696-5.468c13.42-4.041,26.891-7.926,40.408-11.63c7.977-2.186,15.422-5.677,23.105-8.589
		c5.054-1.915,10.246-3.485,15.429-5.035c7.202-2.153,14.421-4.267,21.695-6.16c5.425-1.412,10.966-2.371,16.422-3.673
		c5.761-1.375,11.465-2.991,17.227-4.364c6.258-1.491,12.537-2.905,18.838-4.203c6.313-1.299,12.668-2.389,18.997-3.615
		c7.138-1.382,14.261-2.845,21.402-4.211C363.616,63.007,367.39,62.422,370.75,61.847z"/>
	<path fill-rule="evenodd" clip-rule="evenodd" fill="#792C07" d="M290.733,292.522c5.729-4.348,8.59-11.001,11.085-17.709
		c2.539-6.824,2.331-13.956,0.331-21.198c5.94-0.697,11.535-1.313,17.12-2.018c5.715-0.722,11.399-1.832,17.134-2.219
		c5.851-0.395,11.755-0.32,17.619-0.067c4.208,0.182,8.478,0.631,12.562,1.613c6.499,1.563,12.846,3.743,19.294,5.526
		c7.021,1.942,13.491,5.034,19.778,8.666c1.975,1.141,4.44,1.478,6.716,2.041c2.708,0.669,5.438,1.292,8.188,1.747
		c4.523,0.748,9.056,1.044,13.612,0.04c2.115-0.466,4.297-0.633,6.452-0.913c0.313-0.041,0.696-0.051,0.957,0.089
		c4.28,2.304,8.996,4.083,12.699,7.103c4.424,3.607,9.273,7.265,11.094,13.147c0.9,2.91,1.301,5.976,2.041,9.514
		c-7.105,1.987-14.187,4.223-21.398,5.899c-5.152,1.198-10.47,1.718-15.73,2.407c-6.546,0.856-13.103,1.663-19.671,2.321
		c-4.297,0.43-8.62,0.656-12.938,0.792c-4.162,0.131-8.337,0.161-12.497,0c-7.548-0.291-15.108-0.553-22.629-1.207
		c-7.53-0.654-15.025-1.73-22.525-2.703c-6.472-0.839-12.913-1.95-19.398-2.653c-5.998-0.65-11.912-1.568-17.612-3.582
		c-1.116-0.394-2.144-1.05-3.191-1.623C296.789,295.875,293.765,294.196,290.733,292.522z"/>
	<path fill-rule="evenodd" clip-rule="evenodd" fill="#792C07" d="M571.474,115.615c4.876,0.933,9.757,1.841,14.626,2.804
		c7.133,1.41,14.237,2.962,21.389,4.266c11.184,2.037,22.131,4.939,32.987,8.289c6.201,1.913,12.546,3.36,18.817,5.049
		c0.572,0.154,1.176,0.438,1.604,0.834c2.271,2.108,4.53,4.231,6.715,6.429c1.844,1.854,3.454,3.955,5.391,5.7
		c3.936,3.546,6.981,7.881,10.607,11.662c5.133,5.352,10.8,10.201,16.344,15.147c3.446,3.075,7.158,5.854,10.618,8.916
		c2.357,2.085,4.592,4.335,6.687,6.685c2.28,2.558,1.895,6.224-0.79,8.244c-4.854,3.653-9.593,7.509-14.737,10.705
		c-3.549,2.204-7.508,4.218-11.924,4.012c-3.986-0.186-7.653-1.533-10.525-4.488c-2.211-2.274-4.259-4.716-6.562-6.891
		c-3.939-3.721-8.139-7.17-12.009-10.958c-3.462-3.387-6.611-7.091-9.928-10.628c-4.714-5.029-10.637-8.378-16.418-11.971
		c-4.658-2.896-9.061-6.209-13.527-9.406c-4.058-2.903-8.101-5.832-12.058-8.871c-4.417-3.395-8.781-6.865-13.064-10.428
		c-1.865-1.552-3.55-3.347-5.167-5.165c-1.095-1.232-2.068-2.621-2.855-4.07c-2.752-5.069-7.021-8.644-11.531-12.002
		c-1.577-1.175-3.158-2.345-4.738-3.517C571.44,115.846,571.457,115.73,571.474,115.615z"/>
	<path fill-rule="evenodd" clip-rule="evenodd" fill="#792C07" d="M637.375,235.42c-3.876,3.555-7.357,6.941-11.051,10.079
		c-3.286,2.792-6.662,5.525-10.261,7.886c-3.914,2.568-8.472,1.692-12.824,1.466c-1.585-0.083-3.311-0.165-4.697-0.824
		c-4.457-2.123-8.843-4.414-13.142-6.841c-2.55-1.44-4.977-3.142-7.295-4.937c-3.196-2.474-6.168-5.239-9.371-7.703
		c-2.068-1.591-4.408-2.822-6.572-4.293c-3.326-2.26-6.573-4.64-9.914-6.876c-6.387-4.275-13.403-7.117-20.841-8.962
		c-4.443-1.103-8.889-2.2-13.339-3.278c-0.737-0.179-1.501-0.25-2.687-0.441c1.194-0.908,2.204-1.588,3.113-2.383
		c3.444-3.011,6.796-6.131,10.298-9.073c3.817-3.207,6.247-7.337,8.586-11.643c1.979-3.645,5.568-5.365,9.497-6.275
		c1.675-0.388,3.427-0.862,5.104-0.744c4.397,0.311,8.729,1.042,12.771,3.029c5.398,2.655,10.867,5.167,16.28,7.792
		c6.955,3.372,13.949,6.671,20.805,10.234c4.997,2.598,9.952,5.309,13.851,9.586c5.577,6.119,11.334,12.073,16.924,18.18
		C634.448,231.408,636.005,233.674,637.375,235.42z"/>
	<path fill-rule="evenodd" clip-rule="evenodd" fill="#792C07" d="M584.714,258.755c-1.851,1.583-3.554,3.071-5.291,4.518
		c-6.026,5.016-12.808,8.7-20.302,10.926c-2.911,0.864-6.01,1.188-9.05,1.49c-2.336,0.232-4.718,0.134-7.068-0.006
		c-0.732-0.043-1.493-0.616-2.13-1.094c-2.761-2.078-5.401-4.323-8.237-6.289c-2.62-1.818-5.365-3.488-8.185-4.978
		c-1.944-1.028-4.109-1.64-6.177-2.435c-0.354-0.136-0.739-0.214-1.071-0.393c-6.667-3.607-13.866-5.855-20.963-8.407
		c-5.277-1.897-10.231-4.693-15.505-6.607c-3.352-1.217-5.513-3.378-7.201-6.237c-0.77-1.303-1.128-2.847-1.873-4.168
		c-3.65-6.478-7.65-12.717-12.682-17.913c4.328-0.925,8.79-1.914,13.27-2.818c1.564-0.316,3.167-0.533,4.761-0.605
		c4.204-0.193,8.422-0.499,12.619-0.347c3.698,0.134,7.371,1.129,11.063,1.185c3.933,0.059,7.107,2.022,10.627,3.158
		c5.142,1.659,10.46,2.766,15.677,4.202c7.906,2.176,15.227,5.529,21.57,10.852c5.689,4.773,12.192,8.246,18.887,11.342
		c3.571,1.652,6.605,3.928,9.325,6.72C579.272,253.409,581.84,255.898,584.714,258.755z"/>
	<path fill-rule="evenodd" clip-rule="evenodd" fill="#792C07" d="M674.098,118.897c-1.405,5.043-5.011,8.324-8.915,11.119
		c-1.301,0.932-3.759,0.819-5.516,0.422c-3.399-0.77-6.64-2.215-10.013-3.134c-4.73-1.289-9.549-2.251-14.277-3.547
		c-3.686-1.01-7.299-2.291-10.931-3.494c-10.594-3.51-21.295-6.574-32.286-8.641c-6.132-1.153-12.158-2.855-18.258-4.193
		c-5.667-1.243-11.449-2.038-17.033-3.568c-5.821-1.595-11.466-3.834-17.19-5.785c-4.102-1.398-8.227-2.729-12.306-4.189
		c-8.583-3.072-17.093-6.355-25.729-9.267c-5.667-1.91-11.578-3.101-17.238-5.029c-4.276-1.457-8.229-3.872-12.509-5.315
		c-5.236-1.765-10.677-2.918-16.008-4.413c-4.476-1.254-8.924-2.606-13.373-3.948c-0.535-0.161-1.006-0.533-1.389-1.203
		c12.314,2.855,24.608,5.81,36.955,8.523c6.165,1.354,12.418,2.328,18.651,3.356c5.236,0.864,10.49,1.631,15.754,2.301
		c3.252,0.415,6.533,0.639,9.809,0.82c3.812,0.21,7.632,0.257,11.447,0.416c9.104,0.377,18.208,0.807,27.314,1.157
		c5.05,0.194,10.108,0.191,15.156,0.419c7.025,0.316,14.047,0.731,21.064,1.184c1.59,0.102,3.065,0.569,4.178,1.983
		c1.871,2.377,4.808,2.605,7.456,3.492c9.297,3.115,18.928,5.334,27.747,9.756c7.2,3.609,14.307,7.414,21.364,11.297
		c5.089,2.799,10.03,5.868,15.035,8.819C673.438,118.46,673.8,118.708,674.098,118.897z"/>
	<path fill-rule="evenodd" clip-rule="evenodd" fill="#792C07" d="M559.745,179.114c7.508-2.898,14.469-5.971,21.678-8.264
		c8.009-2.547,16.118-4.963,24.594-5.569c2.78-0.199,5.572-0.239,8.356-0.407c2.405-0.145,3.531,1.887,5.155,3.017
		c3.257,2.264,6.388,4.708,9.561,7.093c3.118,2.344,6.352,4.553,9.307,7.088c6.748,5.789,13.479,11.61,19.98,17.67
		c4.601,4.288,8.812,8.994,13.207,13.501c1.499,1.538,3.052,3.023,4.546,4.567c1.533,1.585,1.203,2.682-0.249,4.208
		c-4.465,4.689-10.434,5.975-16.273,7.604c-3.558,0.993-7.106,2.038-10.707,2.846c-1.611,0.362-3.362,0.397-5.005,0.201
		c-0.838-0.1-1.715-0.918-2.328-1.624c-1.254-1.445-2.214-3.156-3.524-4.541c-2.908-3.071-6.009-5.958-8.935-9.013
		c-2.858-2.985-5.561-6.12-8.398-9.125c-3.379-3.578-7.23-6.633-11.66-8.739c-6.343-3.015-12.821-5.749-19.284-8.504
		c-6.985-2.978-14.005-5.877-21.039-8.738C565.97,181.264,563.134,180.341,559.745,179.114z"/>
	<path fill-rule="evenodd" clip-rule="evenodd" fill="#792C07" d="M447.316,266.544c3.364-1.324,6.68-2.792,10.103-3.937
		c5.411-1.811,9.993-4.829,14.05-8.78c1.514-1.475,3.146-2.867,4.9-4.032c0.582-0.387,1.805-0.174,2.577,0.146
		c6.834,2.833,13.712,5.581,20.417,8.697c5.741,2.668,11.264,5.805,16.9,8.7c3.556,1.826,7.282,3.363,10.678,5.447
		c2.877,1.765,5.387,4.128,8.014,6.19c-6.335,5.762-13.464,10.248-20.864,14.254c-4.257,2.305-8.964,3.567-13.78,4.419
		c-7.413,1.312-14.868,0.47-22.299,0.755c-1.932,0.075-3.932,0.857-5.546-0.714c0.6-4.064-0.688-7.807-2.033-11.508
		c-1.5-4.127-4.631-6.941-7.771-9.881c-4.492-4.208-9.531-7.295-15.345-9.238C447.317,266.889,447.316,266.716,447.316,266.544z"/>
	<path fill-rule="evenodd" clip-rule="evenodd" fill="#792C07" d="M671.754,133.426c1.805-4.095,3.828-8.687,5.767-13.086
		c9.376,3.813,18.769,7.627,28.154,11.455c3.114,1.27,6.573,2.071,9.241,3.975c4.674,3.334,9.116,7.052,12.345,12.016
		c1.155,1.777,2.947,3.214,4.655,4.54c2.365,1.837,4.892,3.478,7.413,5.101c2.639,1.699,4.041,2.521,9.107,2.919
		c-2.146,3.987-4.307,7.816-6.289,11.735c-1.845,3.648-5.065,5.902-8.062,8.397c-2.76,2.297-5.597,4.5-8.332,6.825
		c-0.949,0.808-1.667,0.907-2.619,0.063c-1.342-1.19-2.78-2.269-4.158-3.419c-3.253-2.716-6.592-5.34-9.712-8.202
		c-3.135-2.875-6.33-5.762-8.999-9.05c-5.306-6.534-11.744-12.094-16.35-19.23c-0.932-1.445-2.476-2.48-3.635-3.794
		c-2.21-2.504-4.355-5.065-6.508-7.62C673.113,135.266,672.521,134.425,671.754,133.426z"/>
	<path fill-rule="evenodd" clip-rule="evenodd" fill="#792C07" d="M627.17,86.172c8.021,1.501,16.091,2.78,24.044,4.575
		c5.769,1.302,11.375,3.312,17.066,4.959c5.562,1.609,11.217,2.936,16.685,4.813c3.729,1.281,7.114,3.553,10.824,4.917
		c4.894,1.799,10.005,3.001,14.931,4.723c4.557,1.593,9.02,3.465,13.472,5.336c6.181,2.598,12.357,5.215,18.446,8.017
		c2.884,1.327,5.826,2.781,8.244,4.78c1.788,1.479,2.643,4.035,4.146,5.927c2.084,2.624,1.603,5.617,1.514,8.537
		c-0.054,1.744-1.593,2.569-2.752,3.693c-2.701,2.619-5.758,2.696-9.116,2.036c-1.132-0.223-2.409,0.109-3.471-0.251
		c-3.318-1.128-6.396-2.558-8.798-5.417c-2.688-3.2-5.865-5.989-8.828-8.958c-1.584-1.588-2.969-3.465-4.79-4.703
		c-2.607-1.771-5.418-3.359-8.341-4.53c-9.941-3.983-19.988-7.702-29.956-11.619c-4.394-1.727-8.77-3.535-13.013-5.596
		c-3.033-1.474-5.762-3.563-8.75-5.141c-5.363-2.833-10.816-5.492-16.237-8.214c-3.418-1.717-6.827-3.452-10.274-5.108
		c-1.709-0.82-3.494-1.481-5.244-2.214C627.037,86.547,627.104,86.36,627.17,86.172z"/>
	<path fill-rule="evenodd" clip-rule="evenodd" fill="#792C07" d="M95.845,167.015c-12.025-4.25-24.275-7.179-37.417-6.071
		c2.847-2.167,5.506-4.656,8.575-6.44c9.305-5.41,19.327-9.312,29.286-13.324c0.223-0.09,0.496-0.055,0.971-0.1
		c-0.386,6.338,0.157,12.409,4.427,17.569C98.696,160.865,96.689,163.565,95.845,167.015z"/>
	<path fill-rule="evenodd" clip-rule="evenodd" fill="#792C07" d="M417.28,670.232c2.002-1.312,4.601-1.96,7.066-1.27
		c1.212,0.339,2.287,2.15,2.87,3.529c1.031,2.438,1.348,5.191,2.477,7.568c3.523,7.422,4.114,15.177,3.07,23.149
		c-0.503,3.845-3.303,6.086-7.568,5.97c-3.463-0.094-6.919-0.564-10.066-2.229c-4.866-2.574-7.134-6.968-8.005-12.1
		c-0.907-5.342,0.671-10.509,2.545-15.342c1.564-4.034,4.54-7.366,9.354-8.061c0.793-0.114,1.617-0.016,2.427-0.016
		c0.017-0.239,0.032-0.479,0.049-0.718C420.037,670.548,418.574,670.381,417.28,670.232z"/>
	<path fill-rule="evenodd" clip-rule="evenodd" fill="#792C07" d="M437.068,683.902c-1.341-2.951-2.437-5.363-3.532-7.775
		C436.03,677.956,437.188,680.373,437.068,683.902z"/>
</g>
</svg>
